<?xml version="1.0" encoding="utf-8"?>
<!-- Generator: Adobe Illustrator 19.0.1, SVG Export Plug-In . SVG Version: 6.00 Build 0)  -->
<svg version="1.1" id="Layer_1" xmlns="http://www.w3.org/2000/svg" xmlns:xlink="http://www.w3.org/1999/xlink" x="0px" y="0px"
	 viewBox="-370 282 50 50" style="enable-background:new -370 282 50 50;" xml:space="preserve">
<style type="text/css">
	.st0{fill:#7F7F7F;}
	.st1{fill:#FFFFFF;}
</style>
<g>
	<g>
		<path class="st0" d="M-359.6,283.9l0.6-0.6c1.4-1.4,3.8-1.4,5.2,0l0,0c1.4,1.4,1.4,3.8,0,5.2l-0.6,0.7L-359.6,283.9z"/>
		<path class="st0" d="M-357.9,286.1c-2-2-2-2.1-2-2.2l0.1-0.1l0.6-0.6c1.6-1.6,4.1-1.6,5.6,0s1.6,4.1,0,5.6l-0.8,0.8l-0.2-0.2
			C-356,287.9-357.1,286.8-357.9,286.1z M-359.2,283.9c0.7,0.7,3.1,3.1,4.8,4.8l0.4-0.4c1.3-1.3,1.3-3.5,0-4.8s-3.5-1.3-4.8,0
			L-359.2,283.9z"/>
	</g>
	<path class="st0" d="M-362.9,298c0-0.2-0.2-0.3-0.3-0.2l-4.6,1c0.1-0.6-0.7-1.4-1.3-1.3l1-4.6c0-0.2-0.1-0.3-0.2-0.3
		c-0.2,0-0.3,0.1-0.3,0.2l-1.4,6.6c0,0.1,0,0.2,0.1,0.3s0.2,0.1,0.3,0.1l6.6-1.4C-363,298.3-362.9,298.1-362.9,298z"/>
	<g>
		<polygon class="st1" points="-366.8,292.4 -367.1,294 -365.4,293.7 -365.8,295.4 -364.1,295 -364.5,296.7 -362.8,296.3 
			-363.2,298 -354.3,289.1 -359.5,283.9 -368.4,292.8 		"/>
		<path class="st0" d="M-363.4,298.2c-0.1-0.1-0.1-0.2-0.1-0.3l0.3-1.2l-1.2,0.3c-0.1,0-0.2,0-0.3-0.1l0,0c-0.1-0.1-0.1-0.2-0.1-0.3
			l0.3-1.3l-1.2,0.3c-0.1,0-0.2,0-0.3-0.1l0,0c-0.1-0.1-0.1-0.2-0.1-0.3l0.3-1.3l-1.3,0.3c-0.1,0-0.2,0-0.3-0.1l0,0c0,0.1,0,0,0-0.1
			l0.3-1.2l-1.3,0.2c-0.1,0-0.3,0-0.3-0.1c-0.1-0.1,0-0.3,0-0.3l8.9-8.9c0.1-0.1,0.3-0.1,0.4,0l5.3,5.3c0.1,0.1,0.1,0.3,0,0.4
			l-8.9,8.9C-363.1,298.3-363.2,298.3-363.4,298.2C-363.4,298.3-363.4,298.2-363.4,298.2z M-366.6,292.2c0.1,0.1,0.1,0.2,0.1,0.3
			l-0.3,1.3l1.3-0.3c0.1,0,0.2,0,0.3,0.1l0,0c0.1,0.1,0.1,0.2,0.1,0.3l-0.3,1.1l1.2-0.3c0.1,0,0.2,0,0.3,0.1l0,0
			c0.1,0.1,0.1,0.2,0.1,0.3l-0.3,1.3l1.3-0.3c0.1,0,0.2,0,0.3,0.1l0,0c0.1,0.1,0.1,0.2,0.1,0.3l-0.2,0.7l8-8l-4.9-4.9l-8,8l0.7-0.2
			C-366.7,292.1-366.6,292.1-366.6,292.2L-366.6,292.2z"/>
	</g>
</g>
</svg>
