<?xml version="1.0" encoding="utf-8"?>
<!-- Generator: Adobe Illustrator 19.0.1, SVG Export Plug-In . SVG Version: 6.00 Build 0)  -->
<svg version="1.1" id="Layer_1" xmlns="http://www.w3.org/2000/svg" xmlns:xlink="http://www.w3.org/1999/xlink" x="0px" y="0px"
	 viewBox="-370 282 50 50" style="enable-background:new -370 282 50 50;" xml:space="preserve">
<style type="text/css">
	.st0{fill:#E5E5E5;}
	.st1{fill:#FFFFFF;}
	.st2{fill:none;stroke:#F4F4F4;stroke-miterlimit:10;}
</style>
<g>
	<g>
		<path class="st0" d="M-350.2,292.3l0.6-0.6c1.4-1.4,3.8-1.4,5.2,0l0,0c1.4,1.4,1.4,3.8,0,5.2l-0.6,0.7L-350.2,292.3z"/>
		<path class="st0" d="M-348.5,294.5c-2-2-2-2.1-2-2.2l0.1-0.1l0.6-0.6c1.6-1.6,4.1-1.6,5.6,0s1.6,4.1,0,5.6l-0.8,0.8l-0.2-0.2
			C-346.6,296.3-347.7,295.2-348.5,294.5z M-349.8,292.3c0.7,0.7,3.1,3.1,4.8,4.8l0.4-0.4c1.3-1.3,1.3-3.5,0-4.8
			c-1.3-1.3-3.5-1.3-4.8,0L-349.8,292.3z"/>
	</g>
	<path class="st0" d="M-353.5,306.4c0-0.2-0.2-0.3-0.3-0.2l-4.6,1c0.1-0.6-0.7-1.4-1.3-1.3l1-4.6c0-0.2-0.1-0.3-0.2-0.3
		c-0.2,0-0.3,0.1-0.3,0.2l-1.4,6.6c0,0.1,0,0.2,0.1,0.3s0.2,0.1,0.3,0.1l6.6-1.4C-353.6,306.7-353.5,306.5-353.5,306.4z"/>
	<g>
		<polygon class="st1" points="-357.4,300.8 -357.7,302.4 -356,302.1 -356.4,303.8 -354.7,303.4 -355.1,305.1 -353.4,304.7 
			-353.8,306.4 -344.9,297.5 -350.1,292.3 -359,301.2 		"/>
		<path class="st0" d="M-354,306.6c-0.1-0.1-0.1-0.2-0.1-0.3l0.3-1.2l-1.2,0.3c-0.1,0-0.2,0-0.3-0.1l0,0c-0.1-0.1-0.1-0.2-0.1-0.3
			l0.3-1.3l-1.2,0.3c-0.1,0-0.2,0-0.3-0.1l0,0c-0.1-0.1-0.1-0.2-0.1-0.3l0.3-1.3l-1.3,0.3c-0.1,0-0.2,0-0.3-0.1l0,0c0,0.1,0,0,0-0.1
			l0.3-1.2l-1.3,0.2c-0.1,0-0.3,0-0.3-0.1c-0.1-0.1,0-0.3,0-0.3l8.9-8.9c0.1-0.1,0.3-0.1,0.4,0l5.3,5.3c0.1,0.1,0.1,0.3,0,0.4
			l-8.9,8.9C-353.7,306.7-353.8,306.7-354,306.6C-354,306.7-354,306.6-354,306.6z M-357.2,300.6c0.1,0.1,0.1,0.2,0.1,0.3l-0.3,1.3
			l1.3-0.3c0.1,0,0.2,0,0.3,0.1l0,0c0.1,0.1,0.1,0.2,0.1,0.3l-0.3,1.1l1.2-0.3c0.1,0,0.2,0,0.3,0.1l0,0c0.1,0.1,0.1,0.2,0.1,0.3
			l-0.3,1.3l1.3-0.3c0.1,0,0.2,0,0.3,0.1l0,0c0.1,0.1,0.1,0.2,0.1,0.3l-0.2,0.7l8-8l-4.9-4.9l-8,8l0.7-0.2
			C-357.3,300.5-357.2,300.5-357.2,300.6L-357.2,300.6z"/>
	</g>
</g>
<polyline class="st2" points="-329.2,295.2 -341.3,282.9 -369,282.9 -369,310.8 -356.4,322.4 "/>
</svg>
